<svg xmlns="http://www.w3.org/2000/svg" width="15.487" height="18.7" viewBox="0 0 15.487 18.7">
  <g id="surface1" transform="translate(-215.625 -306.964)">
    <path id="Path_3814" data-name="Path 3814" d="M230.525,314.7a1.887,1.887,0,0,0-1.774-.328,1.635,1.635,0,0,0-.434.227,11.928,11.928,0,0,0-1.66,1.71v-5.615a1.8,1.8,0,0,0-.538-1.28,1.734,1.734,0,0,0-1.858-.385v-.12a1.96,1.96,0,0,0-.589-1.394,1.876,1.876,0,0,0-1.364-.549,1.971,1.971,0,0,0-1.883,1.429,1.837,1.837,0,0,0-.708-.164,1.949,1.949,0,0,0-1.406.55,1.843,1.843,0,0,0-.571,1.327l-.006-.019a1.611,1.611,0,0,0-2.03,1.036,1.632,1.632,0,0,0-.079.5v8.756a7.256,7.256,0,0,0,.667,2.726,4.257,4.257,0,0,0,1.433,1.651,6.771,6.771,0,0,0,3.806.9,6,6,0,0,0,5.294-2.916c.123-.2.448-.71.8-1.26s.659-1.031.94-1.468l.416-.648c.453-.709.936-1.4,1.436-2.043.185-.24.242-.3.255-.319a1.658,1.658,0,0,0,.426-.9A1.51,1.51,0,0,0,230.525,314.7Zm-.541,1.237a.541.541,0,0,1-.141.294c-.041.044-.113.129-.316.391-.52.673-1.022,1.387-1.493,2.124l-.415.646c-.281.437-.6.933-.942,1.472-.359.564-.691,1.086-.813,1.283l-.013.022a4.88,4.88,0,0,1-4.32,2.368,5.772,5.772,0,0,1-3.18-.712,4.292,4.292,0,0,1-1.6-3.51V311.62a.491.491,0,1,1,.982,0v3.717a.037.037,0,0,0,.007.026c.007.009,0,.019.007.028a.067.067,0,0,1,.009.026l.009.026c0,.009.008.016.012.025l.012.025.014.023.022.019.016.022.016.022.018.02.018.02.019.018.02.019.021.016.022.017.022.013.024.015.023.011.026.012.025.009.03.01.026.007.027.007h.226l.032-.008.022-.006.034-.013.017-.006.033-.016.016-.008.03-.018.016-.01.026-.02.017-.013.022-.02.017-.015.02-.022.019-.018.017-.022.012-.023.014-.023.014-.023.012-.024.012-.025a.084.084,0,0,1,.009-.025l.01-.026c0-.009,0-.017.007-.026s.005-.018.007-.028a.122.122,0,0,0,0-.027v-.086l.013-5.117a.732.732,0,0,1,.23-.523.817.817,0,0,1,.591-.234.776.776,0,0,1,.734.786l.018,5.059v.113a.309.309,0,0,0,.008.033c0,.011,0,.014.005.021a.312.312,0,0,1,.013.034l.006.017c.005.012.011.024.017.036l.006.013.021.035.007.011a.409.409,0,0,0,.025.033l.008.01c.009.012.02.022.03.033l.006.007a.317.317,0,0,0,.034.03l.006.006.036.027.008.006.038.023.008.005.041.02h.008l.044.016h.008l.045.012h.009a.628.628,0,0,0,.113.011h.114l.036-.01.024-.006.029-.011.022-.008.03-.014.019-.009.028-.017.018-.011.03-.024.018-.013.023-.021.016-.015.021-.023.015-.017.017-.023.015-.02.014-.024.014-.022c0-.008.008-.016.012-.025l.012-.025.009-.025.01-.027c0-.009,0-.018.007-.027s.005-.018.007-.027a.131.131,0,0,0,0-.028V308.88a.8.8,0,0,1,.78-.794.767.767,0,0,1,.558.228.832.832,0,0,1,.251.593v6.429a.048.048,0,0,0,.007.029c.007.01,0,.017.006.025a.132.132,0,0,1,.011.03c0,.01,0,.014.008.021s.01.021.015.031l.009.018.018.03.034.015.022.029.011.014c.008.01.017.019.026.029l.01.011.029.026.011.01.034.026.009.007.039.024h.007l.045.022h0l.049.018h0a.586.586,0,0,0,.109.022h.171l.032-.008.022-.006.033-.012.024-.012.033-.016.016-.008.031-.019.015-.009.03-.023.013-.01.028-.026.011-.01.026-.028.007-.006.023-.03.014-.015a.335.335,0,0,0,.019-.032l.009-.015c.006-.011.011-.022.016-.033l.008-.016a.126.126,0,0,1,.012-.034c0-.012,0-.012.007-.018s.006-.022.008-.033,0-.014.005-.021,0-.022.005-.033,0-.015,0-.023v-4.683a.644.644,0,0,1,.624-.566.618.618,0,0,1,.448.184.675.675,0,0,1,.2.48v6.643a.8.8,0,0,0,1.484.4v-.006a10.844,10.844,0,0,1,1.958-2.225.517.517,0,0,1,.136-.07.752.752,0,0,1,.7.136A.412.412,0,0,1,229.984,315.935Z" fill="#b40000"/>
  </g>
</svg>
