<svg xmlns="http://www.w3.org/2000/svg" width="157.119" height="152.557" viewBox="0 0 157.119 152.557">
  <path id="Path_3814" data-name="Path 3814" d="M6.46,63.559a22.912,22.912,0,0,1,18-2.676,18.25,18.25,0,0,1,4.4,1.851c3.381,2,10.888,8.009,16.836,13.955V30.857a13.5,13.5,0,0,1,5.46-10.448,20.028,20.028,0,0,1,12.718-4.122,21.441,21.441,0,0,1,6.13.976l0-.976A14.692,14.692,0,0,1,75.946,4.914,21.746,21.746,0,0,1,89.775.431C100.11.576,106.856,6.352,108.859,12.1a23.088,23.088,0,0,1,21.449,3.153c3.733,2.916,5.79,6.765,5.79,10.828l.056-.152a20,20,0,0,1,5.115-.66c9.013,0,16.345,5.9,16.345,13.15l-.049,71.117-.013.316c-.753,8.744-3.028,16.231-6.762,22.253a38.156,38.156,0,0,1-14.518,13.511c-12.067,6.534-26.974,7.372-38.612,7.372-22.854,0-43.415-9.143-53.7-23.868-1.25-1.622-4.546-5.791-8.1-10.288-3.465-4.381-6.69-8.419-9.532-11.981-1.563-1.959-2.985-3.74-4.219-5.292-4.6-5.785-9.5-11.394-14.563-16.672-1.879-1.957-2.458-2.488-2.589-2.605A12.615,12.615,0,0,1,.633,74.9C-.085,70.6,2.04,66.467,6.46,63.559ZM11.908,73.69a4.148,4.148,0,0,0,1.434,2.4c.413.363,1.151,1.054,3.205,3.194,5.272,5.491,10.368,11.324,15.146,17.337,1.231,1.549,2.647,3.323,4.207,5.277,2.848,3.569,6.077,7.616,9.556,12.012,3.642,4.6,7.012,8.867,8.246,10.47l.129.176c8.252,11.887,25.046,19.271,43.828,19.271,10.022,0,22.748-.661,32.261-5.811,9.707-5.255,15.028-14.626,16.268-28.646l.049-70.956c0-2.2-2.228-4-4.967-4-2.755,0-5,1.793-5,4l-.043,29.426c0,.074-.01.145-.013.219s-.006.163-.016.244-.027.143-.04.214-.025.161-.044.24-.046.142-.068.212-.043.152-.073.226-.062.14-.095.21-.059.142-.1.211-.078.135-.118.2-.077.135-.12.2-.095.126-.142.189-.092.127-.142.188-.109.118-.164.176-.105.12-.163.176-.121.107-.181.161-.121.113-.186.166-.13.1-.2.144-.135.1-.207.151-.141.086-.212.129-.148.093-.225.136-.149.073-.223.108-.161.083-.246.121-.158.061-.237.092-.172.07-.26.1-.169.05-.252.075-.179.056-.271.08-.179.037-.268.056-.184.042-.277.057-.189.024-.284.036-.186.026-.281.035-.192.008-.289.012-.189.012-.286.012h-.015c-.2,0-.391-.008-.582-.024-.083-.006-.164-.02-.247-.03-.105-.012-.213-.021-.317-.039s-.215-.043-.321-.065c-.074-.017-.151-.029-.223-.046-.118-.03-.234-.067-.349-.1-.056-.018-.117-.032-.173-.051-.115-.039-.225-.086-.336-.13-.053-.021-.108-.039-.161-.062-.1-.045-.2-.1-.3-.148-.056-.027-.114-.052-.167-.082-.092-.049-.179-.1-.266-.16-.058-.035-.117-.067-.172-.1-.081-.052-.155-.112-.232-.169-.058-.042-.117-.082-.173-.125s-.135-.119-.2-.179-.114-.1-.166-.146-.112-.12-.169-.181-.11-.112-.158-.171-.095-.124-.142-.187-.1-.125-.144-.189-.078-.131-.118-.2-.084-.135-.121-.2-.062-.137-.093-.2-.07-.142-.1-.215-.046-.142-.068-.213-.052-.149-.073-.225-.028-.146-.041-.22-.034-.155-.044-.233-.01-.15-.015-.225-.016-.157-.016-.237l-.132-41.767a5.489,5.489,0,0,0-2.336-4.271,9.508,9.508,0,0,0-6-1.906c-4.1.1-7.444,2.972-7.444,6.411L108.873,67.6c0,.083-.01.164-.016.245s0,.148-.013.219-.031.168-.047.251c-.013.068-.022.137-.038.2-.024.09-.056.179-.086.267-.019.057-.034.115-.055.171-.037.1-.084.188-.129.281-.022.046-.038.094-.062.139-.053.1-.114.2-.175.291-.024.036-.041.074-.065.108-.067.1-.142.193-.216.286-.024.031-.044.062-.07.092-.078.094-.164.182-.25.27-.027.027-.05.056-.077.082-.1.094-.2.182-.3.269-.022.019-.04.038-.062.056-.108.087-.223.168-.34.248-.022.015-.041.032-.064.048-.117.077-.238.148-.361.217-.027.015-.05.032-.077.046-.124.068-.255.129-.385.188-.028.013-.055.029-.084.042-.136.058-.277.111-.419.162l-.078.031c-.145.049-.294.09-.445.131-.027.006-.05.016-.077.023-.149.037-.3.067-.454.094-.031,0-.061.013-.092.019a7.074,7.074,0,0,1-1.145.093h-.009c-.1,0-.2-.008-.294-.012s-.189,0-.283-.012-.2-.025-.3-.038c-.086-.011-.175-.018-.26-.032-.1-.017-.2-.04-.3-.062-.081-.018-.163-.031-.243-.051-.1-.025-.2-.057-.3-.088-.074-.023-.151-.04-.223-.066-.1-.036-.2-.077-.3-.117-.065-.026-.133-.049-.2-.076-.1-.043-.191-.093-.286-.139-.061-.031-.124-.058-.183-.09-.09-.049-.175-.1-.26-.157-.059-.036-.12-.069-.178-.107-.081-.054-.158-.114-.237-.173-.055-.04-.112-.08-.167-.123-.073-.06-.141-.124-.21-.186-.052-.046-.107-.09-.157-.139s-.118-.127-.176-.191-.1-.107-.151-.162-.1-.13-.146-.2-.1-.12-.138-.182-.08-.135-.12-.2-.084-.131-.12-.2-.062-.135-.092-.2-.071-.144-.1-.218-.046-.144-.07-.217-.052-.146-.07-.221-.03-.152-.044-.227-.033-.151-.041-.227-.01-.156-.015-.235-.015-.152-.015-.231l0-51.528c0-3.515-3.551-6.422-7.915-6.483a8.937,8.937,0,0,0-5.658,1.859,6.265,6.265,0,0,0-2.542,4.843l0,51.561c0,.083-.01.164-.016.246s0,.146-.013.219-.031.16-.046.239-.024.145-.041.216-.05.157-.075.236-.038.136-.065.2c-.033.085-.074.167-.112.249-.027.057-.049.115-.078.171-.046.086-.1.168-.151.251-.03.049-.056.1-.089.149-.056.085-.121.164-.185.245-.034.043-.064.089-.1.132-.068.081-.144.158-.219.236-.037.038-.07.079-.108.115-.083.082-.175.158-.265.236-.036.029-.067.061-.1.089-.093.076-.194.145-.294.215-.037.026-.071.055-.11.08-.112.075-.231.143-.349.211-.03.017-.058.036-.089.054-.127.069-.26.132-.4.193-.025.011-.047.025-.073.036-.148.064-.3.121-.454.176l-.043.017c-.161.055-.327.1-.5.145l-.028.008a6.862,6.862,0,0,1-1.1.182h-.007c-.191.015-.385.024-.582.024h-.006c-.1,0-.2-.008-.3-.012s-.186,0-.278-.012-.207-.025-.311-.038c-.084-.011-.17-.018-.255-.032-.111-.018-.218-.044-.326-.067-.073-.015-.148-.027-.219-.045-.115-.03-.226-.065-.339-.1-.061-.019-.123-.035-.183-.055-.114-.039-.223-.085-.334-.13-.053-.021-.109-.039-.163-.063-.108-.048-.212-.1-.317-.155-.05-.025-.1-.048-.152-.075-.107-.057-.206-.121-.306-.185-.043-.026-.089-.051-.132-.079-.1-.067-.192-.139-.287-.211-.038-.029-.08-.055-.115-.085-.092-.074-.178-.152-.262-.232-.036-.031-.073-.061-.107-.093-.081-.08-.155-.164-.229-.248-.031-.036-.067-.069-.1-.1-.07-.083-.132-.17-.194-.257-.03-.04-.064-.079-.092-.12-.059-.088-.11-.18-.161-.271-.025-.043-.055-.085-.077-.129-.047-.089-.086-.182-.126-.274-.021-.049-.047-.1-.067-.148-.033-.087-.058-.179-.086-.268-.016-.057-.038-.113-.053-.17-.022-.088-.036-.18-.052-.269-.01-.062-.027-.123-.034-.186-.012-.083-.012-.169-.016-.255,0-.07-.013-.139-.013-.212V30.062c-.37-2.554-3.064-4.577-6.327-4.622a7.18,7.18,0,0,0-4.546,1.5,5.068,5.068,0,0,0-2.058,3.918V84.886l0,.2c-.031,2.966-2.452,5.472-6.022,6.236a8.874,8.874,0,0,1-9.035-3.01l-.036-.051c-4.46-6.27-16.38-16.1-19.861-18.157a5.694,5.694,0,0,0-1.376-.574,9.147,9.147,0,0,0-7.077,1.112A3.189,3.189,0,0,0,11.908,73.69Zm0,0" transform="translate(-0.496 -0.429)" fill="#878da8"/>
</svg>
